HIERARCHY
ROOT Hips
{
 OFFSET 0.000000 0.000000 0.000000
 CHANNELS 6 Xposition Yposition Zposition Yrotation Xrotation Zrotation
 JOINT Chest
 {
  OFFSET 0.000000 9.585900 0.002600
  CHANNELS 3 Yrotation Xrotation Zrotation
  JOINT Chest2
  {
   OFFSET 0.000000 9.601200 -0.005300
   CHANNELS 3 Yrotation Xrotation Zrotation
   JOINT Chest3
   {
    OFFSET 0.000000 9.561800 0.000000
    CHANNELS 3 Yrotation Xrotation Zrotation
    JOINT Chest4
    {
     OFFSET 0.000000 9.552100 0.000000
     CHANNELS 3 Yrotation Xrotation Zrotation
     JOINT Neck
     {
      OFFSET 0.000000 14.453000 0.000000
      CHANNELS 3 Yrotation Xrotation Zrotation
      JOINT Head
      {
       OFFSET 0.000000 8.936500 -0.011300
       CHANNELS 3 Yrotation Xrotation Zrotation
       End Site
       {
        OFFSET 0.000000 17.073600 -0.006000
       }
      }
     }
     JOINT RightCollar
     {
      OFFSET -2.921100 9.558500 0.000000
      CHANNELS 3 Yrotation Xrotation Zrotation
      JOINT RightShoulder
      {
       OFFSET -13.519700 0.000000 0.000000
       CHANNELS 3 Yrotation Xrotation Zrotation
       JOINT RightElbow
       {
        OFFSET 0.000000 -29.696600 0.000000
        CHANNELS 3 Yrotation Xrotation Zrotation
        JOINT RightWrist
        {
         OFFSET 0.000000 -24.004700 0.000000
         CHANNELS 3 Yrotation Xrotation Zrotation
         End Site
         {
          OFFSET 0.000000 -17.728500 0.000000
         }
        }
       }
      }
     }
     JOINT LeftCollar
     {
      OFFSET 2.921100 9.558500 0.000000
      CHANNELS 3 Yrotation Xrotation Zrotation
      JOINT LeftShoulder
      {
       OFFSET 13.519700 0.000000 0.000000
       CHANNELS 3 Yrotation Xrotation Zrotation
       JOINT LeftElbow
       {
        OFFSET 0.000000 -29.696600 0.000000
        CHANNELS 3 Yrotation Xrotation Zrotation
        JOINT LeftWrist
        {
         OFFSET 0.000000 -24.004700 0.000000
         CHANNELS 3 Yrotation Xrotation Zrotation
         End Site
         {
          OFFSET 0.000000 -17.728500 0.000000
         }
        }
       }
      }
     }
    }
   }
  }
 }
 JOINT RightHip
 {
  OFFSET -7.771700 -0.012900 -0.001300
  CHANNELS 3 Yrotation Xrotation Zrotation
  JOINT RightKnee
  {
   OFFSET 0.000000 -40.869800 0.001200
   CHANNELS 3 Yrotation Xrotation Zrotation
   JOINT RightAnkle
   {
    OFFSET 0.000000 -39.717900 0.002100
    CHANNELS 3 Yrotation Xrotation Zrotation
    JOINT RightToe
    {
     OFFSET 0.000000 -4.965400 11.033500
     CHANNELS 3 Yrotation Xrotation Zrotation
     End Site
     {
      OFFSET 0.000000 -1.423100 5.872300
     }
    }
   }
  }
 }
 JOINT LeftHip
 {
  OFFSET 7.771700 -0.012900 -0.001300
  CHANNELS 3 Yrotation Xrotation Zrotation
  JOINT LeftKnee
  {
   OFFSET 0.000000 -40.869800 0.001200
   CHANNELS 3 Yrotation Xrotation Zrotation
   JOINT LeftAnkle
   {
    OFFSET 0.000000 -39.717900 0.002100
    CHANNELS 3 Yrotation Xrotation Zrotation
    JOINT LeftToe
    {
     OFFSET 0.000000 -4.965400 11.033500
     CHANNELS 3 Yrotation Xrotation Zrotation
     End Site
     {
      OFFSET 0.000000 -1.423100 5.872300
     }
    }
   }
  }
 }
}
MOTION
Frames: 9
Frame Time: 0.008333
-124.368415 62.103612 19.661985 176.791763 -51.941838 -0.528794 4.079138 27.078093 0.946193 0.581350 4.634278 0.199668 0.942754 7.345187 0.326202 3.064987 21.914841 1.376179 1.349128 16.021461 2.368799 1.725878 -6.032972 3.883212 6.064025 6.034820 4.880126 -5.451848 -7.741566 -13.698898 -161.046519 -63.687707 -170.819155 21.294913 0.430741 3.464087 -10.700817 3.581653 -2.207681 -7.935229 -4.982917 19.215213 -167.620840 -79.872737 151.931722 2.894966 -5.220379 3.746121 3.055314 -15.009702 -6.607872 -2.278692 58.742298 -6.466329 -0.077353 -7.758158 9.018811 0.374527 -0.826703 0.186394 -4.460918 -11.608907 1.207336 32.268294 73.843269 34.878310 0.544940 -10.752940 -6.379951 0.436709 0.959218 0.186424
-124.367619 62.103384 19.660876 176.795759 -51.952426 -0.534759 4.060730 27.079170 0.960648 0.587774 4.640563 0.188029 0.940932 7.343725 0.332145 3.054840 21.916572 1.377591 1.370279 16.028946 2.350957 1.820407 -6.020546 3.847008 6.076646 6.036318 4.863602 -5.443112 -7.744112 -13.687049 -161.059025 -63.716918 -170.799894 21.307070 0.436541 3.476590 -10.703526 3.574310 -2.208806 -8.011651 -5.011456 19.281248 -167.757955 -79.938901 152.003245 2.908245 -5.212981 3.744274 3.054952 -14.997537 -6.608206 -2.271263 58.744842 -6.453577 -0.067202 -7.769566 9.011158 0.364659 -0.824667 0.185770 -4.473633 -11.598617 1.204295 32.267799 73.849507 34.880065 0.554686 -10.760057 -6.385689 0.432305 0.955616 0.187564
-124.367184 62.102381 19.660283 176.801745 -51.957732 -0.540225 4.054935 27.079185 0.971165 0.586480 4.644700 0.179861 0.937506 7.337373 0.345817 3.043347 21.921597 1.378008 1.409418 16.035316 2.338814 1.899210 -6.015351 3.810776 6.092945 6.023460 4.861715 -5.443812 -7.737604 -13.690482 -161.057925 -63.750185 -170.788290 21.289717 0.452087 3.496371 -10.717332 3.561810 -2.202395 -8.087667 -5.040791 19.340583 -167.934926 -80.020629 152.107426 2.930981 -5.203908 3.746532 3.058678 -14.992000 -6.610945 -2.270285 58.748369 -6.444475 -0.058551 -7.774710 9.003540 0.354012 -0.825142 0.189316 -4.480538 -11.593573 1.201446 32.249252 73.854605 34.868721 0.555692 -10.769000 -6.390257 0.439564 0.958180 0.188419
-124.366815 62.100713 19.660182 176.802115 -51.958620 -0.540980 4.047647 27.070740 0.982518 0.591618 4.646532 0.183576 0.927153 7.335536 0.344473 3.040250 21.924620 1.382604 1.483599 16.033524 2.338573 1.940155 -6.005206 3.772314 6.097294 6.015899 4.855573 -5.444019 -7.729805 -13.696052 -160.975182 -63.811734 -170.836911 21.302042 0.444379 3.482288 -10.746786 3.548513 -2.192945 -8.159610 -5.071837 19.398005 -168.185073 -80.121393 152.272251 2.959047 -5.191271 3.755908 3.061466 -14.992710 -6.611276 -2.271062 58.752202 -6.442155 -0.055333 -7.778121 9.001255 0.352223 -0.827523 0.185078 -4.484806 -11.593705 1.197628 32.239612 73.857288 34.865993 0.558796 -10.773846 -6.398370 0.445170 0.961005 0.190402
-124.366886 62.099655 19.659571 176.792626 -51.964888 -0.531062 4.038009 27.065534 0.990069 0.594948 4.648394 0.180847 0.924675 7.338161 0.342448 3.019306 21.913553 1.411063 1.528636 16.048137 2.300363 2.021665 -6.001264 3.731888 6.116021 6.024034 4.825411 -5.444494 -7.717427 -13.712335 -160.912080 -63.842801 -170.879489 21.297251 0.450470 3.478365 -10.756278 3.543331 -2.222450 -8.238785 -5.106728 19.472774 -168.533580 -80.241057 152.519691 2.990331 -5.178748 3.767272 3.068858 -14.987009 -6.616560 -2.259262 58.754652 -6.425150 -0.061950 -7.785419 8.993777 0.357118 -0.822791 0.183505 -4.487268 -11.587009 1.186022 32.261185 73.852447 34.888695 0.571325 -10.776432 -6.400967 0.436848 0.963586 0.185242
-124.368464 62.100089 19.657753 176.781155 -51.982714 -0.509839 4.025903 27.077139 0.983542 0.593797 4.645281 0.183041 0.931810 7.346379 0.331592 3.007669 21.912036 1.431018 1.570343 16.048390 2.285606 2.104403 -6.001567 3.689510 6.133926 6.017474 4.810541 -5.462484 -7.713926 -13.708785 -160.871611 -63.875612 -170.890634 21.286080 0.462472 3.483911 -10.774687 3.523471 -2.229752 -8.319995 -5.141158 19.555065 -168.980013 -80.377699 152.852150 3.025682 -5.167186 3.779496 3.079471 -14.970425 -6.629188 -2.260752 58.762463 -6.426131 -0.063747 -7.794843 8.991729 0.361102 -0.820510 0.182050 -4.490506 -11.569095 1.159591 32.312938 73.843449 34.934167 0.591380 -10.773052 -6.384160 0.415452 0.956475 0.167036
-124.367796 62.099288 19.657130 176.772963 -51.991172 -0.504309 4.020953 27.079362 0.990626 0.588866 4.646514 0.187148 0.929235 7.348131 0.333740 3.004268 21.913009 1.434029 1.611725 16.048071 2.271918 2.186142 -6.002930 3.649262 6.146532 5.996154 4.811668 -5.478521 -7.709506 -13.707353 -160.882077 -63.909150 -170.854615 21.276649 0.470714 3.490681 -10.796533 3.500739 -2.235597 -8.404509 -5.177468 19.641488 -169.500002 -80.529371 153.248005 3.063011 -5.151553 3.794204 3.085406 -14.963186 -6.630797 -2.262105 58.766168 -6.422718 -0.057318 -7.803968 8.988979 0.352965 -0.818196 0.174010 -4.488873 -11.560623 1.156699 32.322230 73.842834 34.947760 0.591732 -10.776421 -6.390057 0.418248 0.957187 0.168884
-124.366678 62.098345 19.656771 176.767585 -51.998287 -0.502699 4.021834 27.082969 0.997119 0.580542 4.645048 0.192838 0.927158 7.349463 0.336078 3.006815 21.915033 1.429246 1.653190 16.042822 2.272030 2.266708 -6.001803 3.612042 6.149497 5.996385 4.803471 -5.482092 -7.726517 -13.683413 -160.805674 -63.997135 -170.882179 21.292693 0.467655 3.473877 -10.825839 3.475913 -2.225853 -8.496431 -5.216752 19.728629 -170.041766 -80.693799 153.663276 3.098810 -5.136343 3.806232 3.087390 -14.958309 -6.629790 -2.265320 58.770517 -6.422523 -0.050147 -7.812148 8.985675 0.346501 -0.816031 0.170453 -4.488774 -11.553068 1.155986 32.336425 73.840687 34.967599 0.586589 -10.782636 -6.393417 0.423301 0.954016 0.176133
-124.366271 62.098959 19.655315 176.766457 -52.016681 -0.498508 4.019666 27.097657 0.999163 0.578161 4.641529 0.199614 0.914552 7.334299 0.352487 3.008471 21.935909 1.409422 1.671630 16.041583 2.266073 2.367365 -6.004391 3.577912 6.150329 5.985234 4.811314 -5.481985 -7.733001 -13.678115 -160.768328 -64.068561 -170.891916 21.290380 0.477814 3.465517 -10.858667 3.448140 -2.212888 -8.602398 -5.258163 19.814740 -170.545053 -80.868287 154.045533 3.141671 -5.130172 3.816000 3.088291 -14.942189 -6.631211 -2.271632 58.779649 -6.429966 -0.047566 -7.821640 8.985328 0.344340 -0.815280 0.169715 -4.492810 -11.531651 1.145761 32.353161 73.833583 34.990036 0.581369 -10.788534 -6.399500 0.431203 0.958203 0.175392
